<?xml version="1.0" standalone="no"?>
<!DOCTYPE svg PUBLIC "-//W3C//DTD SVG 1.1//EN" "http://www.w3.org/Graphics/SVG/1.1/DTD/svg11.dtd" >
<!--
2013-9-30: Created.
-->
<svg>
<metadata>
Created by iconfont
</metadata>
<defs>

<font id="iconfont" horiz-adv-x="1024" >
  <font-face
    font-family="iconfont"
    font-weight="500"
    font-stretch="normal"
    units-per-em="1024"
    ascent="896"
    descent="-128"
  />
    <missing-glyph />
    
    <glyph glyph-name="Password" unicode="&#58973;" d="M686.2848 482.9184h-23.552V568.32a174.2336 174.2336 0 1 1-348.4672 0v-85.4016h-23.6544a86.016 86.016 0 0 1-85.9136-85.9136v-268.3904a86.016 86.016 0 0 1 85.9136-85.9648h395.5712a86.016 86.016 0 0 1 85.9136 85.9136V397.0048a86.016 86.016 0 0 1-85.8112 85.9136zM371.5584 568.32a116.992 116.992 0 1 0 233.9328 0v-85.4016H371.5584z m343.3984-439.552a28.6208 28.6208 0 0 0-28.6208-28.6208H290.6112a28.672 28.672 0 0 0-28.672 28.6208V397.0048a28.672 28.672 0 0 0 28.672 28.6208h395.5712a28.6208 28.6208 0 0 0 28.6208-28.6208zM488.4992 349.3376a28.672 28.672 0 0 1-28.672-28.6208V204.8a28.672 28.672 0 0 1 57.2928 0v115.9168a28.6208 28.6208 0 0 1-28.6208 28.6208z"  horiz-adv-x="1024" />

    
    <glyph glyph-name="question" unicode="&#58972;" d="M533.333333-42.666667a405.333333 405.333333 0 1 0 405.333334 405.333334 405.802667 405.802667 0 0 0-405.333334-405.333334z m0 763.221334a357.888 357.888 0 1 1 357.888-357.888A358.4 358.4 0 0 1 533.333333 720.512zM625.877333 545.92a103.765333 103.765333 0 0 0 31.872-80.298667 110.592 110.592 0 0 0-21.077333-66.602666 614.4 614.4 0 0 0-46.677333-43.818667 114.602667 114.602667 0 0 1-26.197334-30.762667 81.664 81.664 0 0 1-10.837333-42.154666v-13.098667h-46.08v13.098667a105.941333 105.941333 0 0 0 10.794667 49.536 228.736 228.736 0 0 0 57.514666 66.048c9.130667 9.130667 15.36 15.957333 19.370667 20.48a73.173333 73.173333 0 0 1 16.512 44.970666 71.594667 71.594667 0 0 1-18.773333 52.949334 75.861333 75.861333 0 0 1-56.362667 19.925333 74.154667 74.154667 0 0 1-63.232-27.904 106.666667 106.666667 0 0 1-18.218667-65.493333H408.917333a135.125333 135.125333 0 0 0 33.578667 95.658666 124.373333 124.373333 0 0 0 95.658667 37.589334 122.624 122.624 0 0 0 87.722666-30.122667z m-71.168-326.272a32.597333 32.597333 0 0 0 9.642667-23.893333 32.981333 32.981333 0 0 0-9.642667-24.490667 35.968 35.968 0 0 0-24.490666-9.685333 34.133333 34.133333 0 0 0-34.730667 34.133333 34.133333 34.133333 0 0 0 34.730667 33.578667 32.597333 32.597333 0 0 0 24.490666-9.642667z"  horiz-adv-x="1024" />

    
    <glyph glyph-name="expression" unicode="&#58963;" d="M512-42.666667a426.666667 426.666667 0 1 0 426.666667 426.666667 427.136 427.136 0 0 0-426.666667-426.666667z m0 800.981334A374.314667 374.314667 0 1 1 886.314667 384 374.741333 374.741333 0 0 1 512 758.314667zM511.829333 165.973333a222.336 222.336 0 0 0-206.08 127.488 26.581333 26.581333 0 0 0 48.64 21.333334 176.810667 176.810667 0 0 1 317.653334 6.741333 26.581333 26.581333 0 1 0 49.706666-18.944 222.250667 222.250667 0 0 0-209.92-136.618667zM374.442667 502.442667m-48.384 0a48.384 48.384 0 1 1 96.768 0 48.384 48.384 0 1 1-96.768 0ZM656.170667 502.442667m-48.384 0a48.384 48.384 0 1 1 96.768 0 48.384 48.384 0 1 1-96.768 0Z"  horiz-adv-x="1024" />

    
    <glyph glyph-name="picture" unicode="&#58964;" d="M819.413333 770.346667H218.837333A90.965333 90.965333 0 0 1 128 679.509333v-600.533333a90.965333 90.965333 0 0 1 90.837333-90.837333h600.576a90.922667 90.922667 0 0 1 90.794667 90.837333V679.381333a90.922667 90.922667 0 0 1-90.794667 90.965334zM218.837333 717.098667h600.576a37.632 37.632 0 0 0 37.589334-37.589334v-398.378666l-132.266667 92.970666a64.981333 64.981333 0 0 1-77.397333-3.2l-137.984-116.949333-180.053334 166.4a50.645333 50.645333 0 0 1-69.12-0.512L181.333333 344.832V679.509333a37.632 37.632 0 0 0 37.504 37.461334zM181.248 78.933333v192.213334l113.664 108.202666 173.44-160.256-209.834667-177.92h-39.68a37.632 37.632 0 0 0-37.589333 37.674667z m638.165333-37.589333H340.821333l340.821334 288.981333a11.904 11.904 0 0 0 12.373333 0.256l162.986667-114.432v-137.173333a37.632 37.632 0 0 0-37.589334-37.76zM737.365333 534.016a44.245333 44.245333 0 1 1-44.245333 44.245333 44.245333 44.245333 0 0 1 44.245333-44.245333z"  horiz-adv-x="1024" />

    
    <glyph glyph-name="Businesscard" unicode="&#58965;" d="M910.122667-5.888H113.877333A114.005333 114.005333 0 0 0 0 107.989333v546.133334A114.005333 114.005333 0 0 0 113.877333 768h796.245334A114.005333 114.005333 0 0 0 1024 654.122667v-546.133334a114.005333 114.005333 0 0 0-113.877333-113.877333zM113.834667 722.432a68.266667 68.266667 0 0 1-68.266667-68.266667v-546.133333a68.266667 68.266667 0 0 1 68.266667-68.266667h796.288a68.266667 68.266667 0 0 1 68.266666 68.266667v546.133333a68.266667 68.266667 0 0 1-68.266666 68.266667zM806.912 466.474667h-144.128a22.784 22.784 0 0 0 0 45.525333h144.128a22.784 22.784 0 1 0 0-45.525333zM806.912 338.474667h-144.128a22.784 22.784 0 1 0 0 45.525333h144.128a22.784 22.784 0 1 0 0-45.525333zM866.218667 210.474667h-203.434667a22.784 22.784 0 0 0 0 45.525333h203.477333a22.784 22.784 0 0 0 0-45.525333zM390.485333 379.690667a120.234667 120.234667 0 1 1-96.768 0 180.778667 180.778667 0 0 1-171.306666-180.437334 31.189333 31.189333 0 0 1 31.189333-31.189333h376.96a31.189333 31.189333 0 0 1 31.189333 31.189333 180.736 180.736 0 0 1-171.264 180.437334z"  horiz-adv-x="1040" />

    
    <glyph glyph-name="icon-test" unicode="&#58966;" d="M884.864 169.6A426.666667 426.666667 0 1 1 516.181333-42.666667h11.477334a26.666667 26.666667 0 1 1-1.322667 53.290667h-10.112a373.589333 373.589333 0 1 0 320 181.504c-16.810667-25.6-64.469333-77.44-119.210667-62.037333a72.064 72.064 0 0 0-47.829333 39.765333 132.266667 132.266667 0 0 0 3.370667 104.576l60.586666 110.250667a26.666667 26.666667 0 0 1-10.538666 36.224 26.282667 26.282667 0 0 1-22.058667 1.322666 188.586667 188.586667 0 1 1-93.866667-203.349333 163.541333 163.541333 0 0 1 14.208-71.594667 124.842667 124.842667 0 0 1 81.621334-68.522666 128.853333 128.853333 0 0 1 35.072-4.949334 183.466667 183.466667 0 0 1 138.922666 82.816 21.973333 21.973333 0 0 1 2.176 2.304c1.322667 2.133333 2.432 4.266667 3.754667 6.485334l1.92 2.858666c0.554667 0.896 0.298667 0.938667 0.512 1.322667zM381.141333 384a135.082667 135.082667 0 1 0 135.082667-135.082667A135.210667 135.210667 0 0 0 381.098667 384z"  horiz-adv-x="1024" />

    
    <glyph glyph-name="file" unicode="&#58967;" d="M884.010667 553.472V633.6a79.061333 79.061333 0 0 1-78.976 78.976h-236.458667l-17.066667 26.922667a79.36 79.36 0 0 1-62.677333 30.933333H176.597333a79.104 79.104 0 0 1-78.976-78.976v-624.384a79.061333 79.061333 0 0 1 78.976-78.976h676.437334a79.061333 79.061333 0 0 1 78.976 78.976V480.64a79.189333 79.189333 0 0 1-48 72.832z m-78.805334 106.666667a26.325333 26.325333 0 0 0 26.325334-26.325334v-73.941333h-152.106667a26.154667 26.154667 0 0 0-22.272 12.288l-55.466667 87.978667z m74.410667-593.066667a26.368 26.368 0 0 0-26.325333-26.325333H176.853333a26.368 26.368 0 0 0-26.325333 26.325333V691.285333a26.368 26.368 0 0 0 26.325333 26.325334h312.234667a26.325333 26.325333 0 0 0 19.498667-8.277334l103.936-165.461333a78.549333 78.549333 0 0 1 66.858666-36.949333h173.824a26.368 26.368 0 0 0 26.325334-26.325334zM260.266667 399.274667h185.472a26.325333 26.325333 0 1 1 0 52.650666H260.266667a26.325333 26.325333 0 1 1 0-52.650666zM676.693333 295.253333H260.266667a26.325333 26.325333 0 1 1 0-52.650666h416.426666a26.325333 26.325333 0 1 1 0 52.650666z"  horiz-adv-x="1024" />

    
    <glyph glyph-name="Groupcard" unicode="&#58968;" d="M509.781333 335.146667a192 192 0 0 1 84.949334 159.872 188.032 188.032 0 1 1-376.021334 0 192 192 0 0 1 84.949334-159.872A293.376 293.376 0 0 1 85.333333 52.096a50.901333 50.901333 0 0 1 50.816-50.816h541.098667a50.901333 50.901333 0 0 1 50.816 50.816 293.376 293.376 0 0 1-218.282667 283.050667zM272.213333 495.018667a134.528 134.528 0 1 0 134.485334-137.856A136.533333 136.533333 0 0 0 272.213333 495.232zM138.88 54.784a239.829333 239.829333 0 0 0 239.530667 236.842667h56.618666a239.829333 239.829333 0 0 0 239.530667-236.842667zM706.858667 381.738667a192.554667 192.554667 0 0 1 74.197333 152.234666A189.952 189.952 0 0 1 593.024 725.333333a184.533333 184.533333 0 0 1-43.264-5.12 26.752 26.752 0 0 1 12.544-52.010666 131.626667 131.626667 0 0 0 30.762667 3.626666 138.069333 138.069333 0 0 0 16.213333-274.688 25.6 25.6 0 0 1-4.864-1.621333c-0.682667-0.213333-1.365333-0.384-2.005333-0.682667a26.410667 26.410667 0 0 1-16.426667-27.562666 26.752 26.752 0 0 1 26.538667-23.509334h0.896a239.829333 239.829333 0 0 0 239.530666-236.842666h-55.466666a26.752 26.752 0 0 1 0-53.546667h58.368a50.901333 50.901333 0 0 1 50.816 50.816 293.376 293.376 0 0 1-199.808 277.546667z"  horiz-adv-x="1024" />

    
    <glyph glyph-name="video" unicode="&#58969;" d="M822.058667 770.304H214.314667A106.112 106.112 0 0 1 108.330667 664.32v-572.714667a103.637333 103.637333 0 0 1 103.509333-103.509333h610.133333a103.594667 103.594667 0 0 1 103.509334 103.509333V666.752a103.594667 103.594667 0 0 1-103.424 103.552z m52.437333-103.466667v-62.08h-100.352l-49.28 114.474667h97.194667a52.48 52.48 0 0 0 52.394666-52.48zM344.277333 604.757333l-49.152 114.346667h87.68l49.28-114.474667z m143.274667 0l-49.28 114.474667h87.637333l49.28-114.474667z m143.232 0l-49.28 114.474667h87.765333l49.28-114.474667zM214.314667 719.232h25.045333l49.322667-114.474667H159.445333v59.733334a54.997333 54.997333 0 0 0 54.869334 54.613333z m607.744-680.064h-610.133334a52.48 52.48 0 0 0-52.437333 52.437333V553.6h161.237333a25.6 25.6 0 0 1 7.381334-1.109333 26.24 26.24 0 0 1 5.333333 1.109333h541.184v-462.037333a52.48 52.48 0 0 0-52.565333-52.48zM480.042667 412.757333a22.656 22.656 0 0 1-34.133334-19.626666v-178.432a22.656 22.656 0 0 1 34.133334-19.626667l154.538666 89.216a22.656 22.656 0 0 1 0 39.210667z"  horiz-adv-x="1024" />

    
    <glyph glyph-name="Videocall" unicode="&#58970;" d="M623.274667 25.344H129.450667A129.621333 129.621333 0 0 0 0 154.794667V553.216A129.621333 129.621333 0 0 0 129.450667 682.666667h493.824a129.621333 129.621333 0 0 0 129.450666-129.450667v-398.506667a129.621333 129.621333 0 0 0-129.450666-129.365333zM129.450667 630.869333a77.738667 77.738667 0 0 1-77.696-77.696v-398.464a77.738667 77.738667 0 0 1 77.696-77.696h493.824a77.738667 77.738667 0 0 1 77.653333 77.696v398.506667a77.738667 77.738667 0 0 1-77.653333 77.696zM976.426667 162.304a47.573333 47.573333 0 0 0-15.274667 2.517333l-4.778667 2.176-160.725333 94.293334a56.32 56.32 0 0 0-27.733333 48.426666v88.661334a56.405333 56.405333 0 0 0 27.733333 48.469333l165.461333 96.426667a47.530667 47.530667 0 0 0 62.805334-44.970667v-288.554667a47.530667 47.530667 0 0 0-47.530667-47.488z m-4.266667 328.064l-150.314667-88.149333a4.266667 4.266667 0 0 1-2.133333-3.797334v-88.661333a4.266667 4.266667 0 0 1 2.133333-3.797333l150.314667-88.149334z"  horiz-adv-x="1024" />

    
    <glyph glyph-name="voicecall" unicode="&#58971;" d="M705.92 534.912h-1.578667a28.074667 28.074667 0 0 0-26.410666 29.610667 182.570667 182.570667 0 0 1-44.074667 130.688 170.410667 170.410667 0 0 1-119.936 59.392 28.074667 28.074667 0 1 0 3.157333 56.021333 226.133333 226.133333 0 0 0 159.189334-78.677333 238.378667 238.378667 0 0 0 57.728-170.666667 28.032 28.032 0 0 0-28.074667-26.368zM598.101333 540.970667h-1.578666a28.074667 28.074667 0 0 0-26.410667 29.610666 72.149333 72.149333 0 0 1-62.037333 80.170667 28.032 28.032 0 0 0-26.410667 29.610667 28.373333 28.373333 0 0 0 29.610667 26.410666A128 128 0 0 0 626.176 567.466667a28.074667 28.074667 0 0 0-28.074667-26.496zM617.898667-21.333333a227.498667 227.498667 0 0 0-117.162667 40.149333 1015.466667 1015.466667 0 0 0-322.474667 360.234667 207.786667 207.786667 0 0 0-23.808 143.530666 465.877333 465.877333 0 0 0 76.8 162.645334 66.858667 66.858667 0 0 0 44.373334 27.477333 84.096 84.096 0 0 0 62.208-19.157333 664.277333 664.277333 0 0 0 140.416-174.933334 65.109333 65.109333 0 0 0-13.952-87.424l-42.24-28.842666a320.896 320.896 0 0 1 117.205333-130.517334l32.64 38.4a64.426667 64.426667 0 0 0 91.050667 2.858667 897.536 897.536 0 0 0 160.725333-161.664 75.136 75.136 0 0 0-12.074667-100.650667 420.309333 420.309333 0 0 0-163.882666-69.418666 153.344 153.344 0 0 0-29.824-2.688z m-332.8 678.4h-1.493334c-1.024 0-3.797333-0.512-7.424-5.418667a409.898667 409.898667 0 0 1-67.498666-143.189333 155.264 155.264 0 0 1 20.48-106.069334 962.688 962.688 0 0 1 300.501333-335.573333 147.242667 147.242667 0 0 1 107.178667-30.208 378.368 378.368 0 0 1 135.125333 54.101333c11.349333 11.264 12.288 18.176 4.266667 30.848a865.194667 865.194667 0 0 1-148.437334 147.882667c-6.357333 5.12-12.202667 5.717333-13.141333 4.650667l-41.258667-48.725334a41.429333 41.429333 0 0 0-56.874666-5.248 368.896 368.896 0 0 0-148.693334 166.997334 41.898667 41.898667 0 0 0 11.818667 54.314666l52.949333 36.138667a33.536 33.536 0 0 1-4.565333 16 613.034667 613.034667 0 0 1-123.733333 155.178667 36.138667 36.138667 0 0 1-19.114667 8.448z"  horiz-adv-x="1024" />

    
    <glyph glyph-name="ttubiao_cha" unicode="&#58961;" d="M512-128a512 512 0 1 0 512 512 512 512 0 0 0-512-512zM512 839.111111a455.111111 455.111111 0 1 1 455.111111-455.111111 455.111111 455.111111 0 0 1-455.111111 455.111111zM559.217778 384L682.666667 506.88a28.444444 28.444444 0 0 1 0 40.391111 28.444444 28.444444 0 0 1-39.822223 0L518.826667 423.822222 398.222222 547.271111a29.013333 29.013333 0 0 1-40.391111 0 28.444444 28.444444 0 0 1 0-40.391111L478.435556 384l-122.88-123.448889a28.444444 28.444444 0 0 1 0-40.391111 29.582222 29.582222 0 0 1 19.911111-6.826667 30.72 30.72 0 0 1 22.755555 6.826667l120.604445 123.448889 123.448889-123.448889a28.444444 28.444444 0 1 1 39.822222 40.391111z"  horiz-adv-x="1024" />

    
    <glyph glyph-name="ttubiao_gou-47_gou-47" unicode="&#58962;" d="M512 892.017778A508.017778 508.017778 0 1 1 1020.017778 384 508.017778 508.017778 0 0 1 512 892.017778z m325.404444-352.711111L455.111111 201.955556a43.804444 43.804444 0 0 0-29.582222-11.377778h-1.706667a43.804444 43.804444 0 0 0-30.72 16.497778L207.644444 404.48a28.444444 28.444444 0 0 0 0 40.391111 27.875556 27.875556 0 0 0 39.822223 0l179.768889-191.146667 371.484444 328.817778a28.444444 28.444444 0 0 0 37.546667-42.097778z"  horiz-adv-x="1024" />

    
    <glyph glyph-name="ttubiao_shangla" unicode="&#58959;" d="M233.130667 220.842667a24.576 24.576 0 0 0-17.749334 6.826666 25.6 25.6 0 0 0 0 36.181334l270.336 284.330666a38.912 38.912 0 0 0 26.282667 11.605334 36.522667 36.522667 0 0 0 26.965333-10.24l283.989334-270.336a25.6 25.6 0 0 0-34.133334-37.205334l-273.066666 261.12-261.12-273.066666a24.917333 24.917333 0 0 0-21.504-9.216z m269.653333 291.498666z"  horiz-adv-x="1024" />

    
    <glyph glyph-name="ttubiao_xiala" unicode="&#58960;" d="M504.149333 213.333333a38.229333 38.229333 0 0 0-27.306666 11.605334L206.506667 510.293333a25.6 25.6 0 1 0 37.205333 34.133334l260.778667-273.066667 273.066666 260.778667a25.6 25.6 0 0 0 34.133334-36.864l-284.330667-270.336a36.522667 36.522667 0 0 0-23.210667-11.605334z"  horiz-adv-x="1024" />

    
    <glyph glyph-name="ttubiao_Less" unicode="&#58957;" d="M742.4 364.8H281.6a19.2 19.2 0 0 0 0 38.4h460.8a19.2 19.2 0 1 0 0-38.4z"  horiz-adv-x="1024" />

    
    <glyph glyph-name="ttubiao_addpeople" unicode="&#58958;" d="M742.4 403.968h-211.2V614.4a19.2 19.2 0 1 1-38.4 0v-211.2H281.6a19.2 19.2 0 0 1 0-38.4h211.2V153.6a19.2 19.2 0 0 1 38.4 0v211.968H742.4a19.2 19.2 0 0 1 0 38.4z"  horiz-adv-x="1024" />

    
    <glyph glyph-name="ttubiao_jiantou" unicode="&#58956;" d="M361.411765 25.6a30.117647 30.117647 0 0 0-21.082353 51.2l283.105882 283.105882-281.298823 283.105883a30.117647 30.117647 0 0 0 0 42.767059 30.72 30.72 0 0 0 42.767058 0l292.141177-292.74353a46.983529 46.983529 0 0 0 0-66.258823L384.903529 34.635294a30.72 30.72 0 0 0-23.491764-9.035294z m271.058823 324.668235z"  horiz-adv-x="1024" />

    
    <glyph glyph-name="ttubiao_bianji" unicode="&#58955;" d="M393.216 244.736a44.544 44.544 0 0 1 26.112 8.704h3.072L341.504 332.8a48.128 48.128 0 0 1-8.704-26.112l-29.184-89.6z m289.28 323.584l-26.112 26.112a36.352 36.352 0 0 1-51.2 0l-26.112-26.112 77.824-77.824 26.112 26.112a36.352 36.352 0 0 1 0 51.2z m-51.2-102.4l-78.848 76.288-182.272-181.76L448.512 281.6z m-350.72-275.968h460.8v-29.184h-460.8z"  horiz-adv-x="1024" />

    
    <glyph glyph-name="ttubiao_point" unicode="&#58953;" d="M224 384m-91.733333 0a91.733333 91.733333 0 1 1 183.466666 0 91.733333 91.733333 0 1 1-183.466666 0ZM516.266667 384m-91.733334 0a91.733333 91.733333 0 1 1 183.466667 0 91.733333 91.733333 0 1 1-183.466667 0ZM808.533333 384m-91.733333 0a91.733333 91.733333 0 1 1 183.466667 0 91.733333 91.733333 0 1 1-183.466667 0Z"  horiz-adv-x="1024" />

    
    <glyph glyph-name="ttubiao_videocall" unicode="&#58954;" d="M624.64 53.76H128a128 128 0 0 0-128 128v401.066667a128 128 0 0 0 128 128h494.933333a128 128 0 0 0 128-128v-399.36a128 128 0 0 0-126.293333-129.706667zM128 660.906667a78.08 78.08 0 0 1-75.946667-78.08v-399.36A78.08 78.08 0 0 1 128 105.813333h494.933333a78.08 78.08 0 0 1 78.08 77.653334V582.826667a78.08 78.08 0 0 1-78.08 78.08zM978.773333 191.146667a48.213333 48.213333 0 0 0-15.36 2.56l-4.693333 2.133333-161.28 94.293333a56.746667 56.746667 0 0 0-29.44 48.64V426.666667a56.32 56.32 0 0 0 27.733333 48.64l165.973334 96.853333a47.786667 47.786667 0 0 0 63.146666-45.226667v-289.28a48.213333 48.213333 0 0 0-20.053333-38.826666 49.493333 49.493333 0 0 0-26.026667-7.68z m-4.266666 328.533333l-150.613334-88.32a4.693333 4.693333 0 0 1 0-3.84v-88.746667a4.693333 4.693333 0 0 1 0-3.84l150.613334-88.32zM193.28 538.026667m-47.36 0a47.36 47.36 0 1 1 94.72 0 47.36 47.36 0 1 1-94.72 0Z"  horiz-adv-x="1024" />

    
    <glyph glyph-name="IMweb_cancel_cancel" unicode="&#58952;" d="M542.293333 384l173.226667 173.226667a21.333333 21.333333 0 0 1-30.293333 30.293333L512 414.293333 338.773333 587.52a21.333333 21.333333 0 0 1-30.293333-30.293333L481.706667 384l-173.226667-173.226667a21.76 21.76 0 0 1 0-30.293333 23.04 23.04 0 0 1 15.36-5.973333 22.186667 22.186667 0 0 1 14.933333 5.973333L512 353.706667l173.226667-173.226667a22.186667 22.186667 0 0 1 14.933333-5.973333 23.04 23.04 0 0 1 15.36 5.973333 21.76 21.76 0 0 1 0 30.293333z"  horiz-adv-x="1024" />

    
    <glyph glyph-name="IMweb_deldte" unicode="&#58939;" d="M433.92 435.626667a23.04 23.04 0 0 1-23.04-23.04v-213.333334a23.466667 23.466667 0 1 1 46.506667 0v213.333334a23.04 23.04 0 0 1-23.466667 23.04zM584.96 435.626667a23.04 23.04 0 0 1-23.04-23.04v-213.333334a23.466667 23.466667 0 1 1 46.506667 0v213.333334a23.04 23.04 0 0 1-23.466667 23.04zM787.2 591.786667h-159.146667V645.546667a49.493333 49.493333 0 0 1-49.493333 49.92h-137.813333a49.493333 49.493333 0 0 1-49.493334-49.92v-53.76H231.68a23.04 23.04 0 0 1-23.04-23.466667 23.466667 23.466667 0 0 1 23.04-23.466667h42.666667V106.666667A66.986667 66.986667 0 0 1 341.333333 40.106667h332.8a67.413333 67.413333 0 0 1 67.84 66.56V544.853333h42.666667a23.466667 23.466667 0 0 1 26.026667 23.466667 23.466667 23.466667 0 0 1-23.466667 23.466667z m-346.453333 57.173333l140.373333-3.413333v-53.76h-142.506667z m256-542.293333a20.053333 20.053333 0 0 0-20.906667-19.626667H341.333333a20.053333 20.053333 0 0 0-20.48 19.626667V544.853333h374.186667z"  horiz-adv-x="1024" />

    
    <glyph glyph-name="ttubiao_password" unicode="&#58942;" d="M724.8384 488.704h-37.9904V577.0752a165.376 165.376 0 0 1-330.752 0v-88.3712h-37.9904a69.12 69.12 0 0 1-69.0176-69.0176v-282.368a69.0688 69.0688 0 0 1 69.0176-69.0176h406.7328a69.0688 69.0688 0 0 1 69.0176 69.0176V419.6864a69.12 69.12 0 0 1-69.0176 69.0176z m-322.56 88.3712a119.3472 119.3472 0 0 0 238.6944 0v-88.3712H402.2784z m345.7024-439.7568a23.04 23.04 0 0 0-22.9888-23.04H318.2592a23.04 23.04 0 0 0-22.9888 23.04V419.6864a23.04 23.04 0 0 0 22.9888 23.04h406.7328a23.04 23.04 0 0 0 22.9888-23.04zM521.472 358.144a22.9888 22.9888 0 0 1-22.9888-22.9888v-113.3056a23.04 23.04 0 1 1 46.08 0v113.3056a22.9888 22.9888 0 0 1-23.0912 22.9888z"  horiz-adv-x="1024" />

    
    <glyph glyph-name="ttubiao_end" unicode="&#58950;" d="M503.04 0a341.333333 341.333333 0 0 0-166.4 640A34.986667 34.986667 0 0 0 384 625.066667a35.413333 35.413333 0 0 0-13.226667-47.786667 270.933333 270.933333 0 1 1 264.533334 0 34.56 34.56 0 0 0-13.653334 47.36 34.986667 34.986667 0 0 0 47.786667 15.36 341.333333 341.333333 0 0 0-166.4-640zM503.04 452.693333a34.986667 34.986667 0 0 0-33.706667 34.986667V733.013333a34.986667 34.986667 0 0 0 33.706667 34.986667 34.986667 34.986667 0 0 0 34.56-34.986667v-245.333333a34.986667 34.986667 0 0 0-34.56-34.986667z"  horiz-adv-x="1024" />

    
    <glyph glyph-name="ttubiao_signout" unicode="&#58951;" d="M590.7968 45.61919999999998H289.4848a88.9344 88.9344 0 0 0-93.2352 83.6096v488.448a88.9344 88.9344 0 0 0 93.2352 83.5584h301.312a88.9344 88.9344 0 0 0 93.2352-83.5584v-55.3472a26.5216 26.5216 0 1 0-53.0432 0V617.6768c0 16.5888-18.3808 30.72-40.1408 30.72H289.4848c-21.76 0-40.192-13.9776-40.192-30.72v-488.448c0-16.5888 18.432-30.72 40.192-30.72h301.312c21.76 0 40.1408 13.9776 40.1408 30.72v72.96a26.5216 26.5216 0 1 0 53.0432 0v-72.96a88.9344 88.9344 0 0 0-93.184-83.6096zM826.7776 393.4208l-102.8608 89.7024a26.5216 26.5216 0 1 1-34.8672-39.9872l49.5104-43.1616H489.0112a26.5216 26.5216 0 1 1 0-53.0432h247.7056l-47.36-39.936a26.5216 26.5216 0 0 1 34.2016-40.6016l102.8096 86.7328a26.5216 26.5216 0 0 1 0.3584 40.2432z"  horiz-adv-x="1024" />

    
    <glyph glyph-name="ttubiao_mailbox_mailbox" unicode="&#58932;" d="M788.8896 125.38879999999995H203.52A75.52 75.52 0 0 0 128 200.90880000000004V615.0656a76.0832 76.0832 0 0 0 75.5712 76.0832h585.3184a76.8 76.8 0 0 0 76.0832-76.0832v-414.1568a76.0832 76.0832 0 0 0-76.0832-75.52zM203.52 638.3104000000001a25.6 25.6 0 0 1-25.6-23.2448v-414.1568a25.9072 25.9072 0 0 1 25.6-25.6h585.3184a25.6 25.6 0 0 1 25.6 25.6V615.0656a24.832 24.832 0 0 1-25.6 23.2448zM495.104 390.0928a78.1824 78.1824 0 0 0-40.1408 11.1104L243.6608 529.5616a24.832 24.832 0 0 0-8.448 32.2048 21.6576 21.6576 0 0 0 30.1056 9.5232l211.3024-128.3584a35.84 35.84 0 0 1 36.9664 0l211.3024 128.3584a21.6576 21.6576 0 0 0 30.1056-9.5232 24.832 24.832 0 0 0-8.448-32.2048l-211.3024-128.3584a78.2336 78.2336 0 0 0-40.1408-11.1104z"  horiz-adv-x="1024" />

    
    <glyph glyph-name="IMweb_Hook" unicode="&#58949;" d="M512 807.68a426.666667 426.666667 0 1 1 426.666667-426.666667 426.666667 426.666667 0 0 1-426.666667 426.666667z m250.88-285.44l-258.986667-301.653333a52.053333 52.053333 0 0 0-37.12-15.786667 50.773333 50.773333 0 0 0-31.146666 11.093333l-170.666667 128a21.333333 21.333333 0 0 0-4.266667 29.866667 21.76 21.76 0 0 0 29.866667 4.266667l170.666667-130.56a8.533333 8.533333 0 0 1 10.666666 0l256 298.666666a21.333333 21.333333 0 1 0 32.426667-27.733333z"  horiz-adv-x="1024" />

    
    <glyph glyph-name="ttubiao_display" unicode="&#58933;" d="M525.653333 128c-153.6 0-277.333333 144.64-311.466666 189.013333a31.573333 31.573333 0 0 0 0 37.973334c34.133333 42.666667 157.866667 189.013333 311.466666 189.013333s273.92-142.08 308.48-185.6a37.973333 37.973333 0 0 0 0-44.8c-34.56-43.946667-157.866667-185.6-308.48-185.6z m-274.773333 207.36c31.146667-38.4 143.786667-166.826667 274.773333-166.826667s240.213333 124.586667 274.346667 166.826667c-34.133333 42.666667-145.066667 167.253333-274.346667 167.253333s-243.626667-128.426667-274.773333-167.253333z m551.253333-2.56zM573.866667 327.253333a42.666667 42.666667 0 0 0-9.386667 80.213334 82.346667 82.346667 0 1 1-39.68-154.453334 82.346667 82.346667 0 0 1 82.346667 82.346667 52.48 52.48 0 0 1 0 8.533333 39.68 39.68 0 0 0-33.28-16.64zM295.68 496.213333a20.053333 20.053333 0 0 0-14.08 5.973334L233.813333 549.973333a20.48 20.48 0 0 0 0 28.586667 20.48 20.48 0 0 0 29.013334 0l47.36-47.36a20.48 20.48 0 0 0-14.506667-34.986667zM422.4 554.666667a21.333333 21.333333 0 0 0-19.626667 14.933333L384 637.44a20.48 20.48 0 0 0 13.653333 25.6 20.48 20.48 0 0 0 25.173334-14.08l19.626666-65.706667a20.906667 20.906667 0 0 0-13.653333-25.6zM590.506667 568.746667h-4.693334a20.053333 20.053333 0 0 0-14.933333 24.32l16.64 73.386666a20.48 20.48 0 1 0 39.68-8.96l-16.64-72.96a20.48 20.48 0 0 0-20.053333-15.786666zM774.826667 504.32a20.906667 20.906667 0 0 0-14.506667 7.68 20.48 20.48 0 0 0 0 28.586667L818.773333 597.333333a20.48 20.48 0 0 0 28.586667 0 20.48 20.48 0 0 0 0-29.013333L789.333333 512a21.76 21.76 0 0 0-14.506666-7.68z"  horiz-adv-x="1024" />

    
    <glyph glyph-name="ttubiao_hide" unicode="&#58935;" d="M848.64 436.906667a19.626667 19.626667 0 0 1-27.306667 0c-288.853333-256-569.173333-10.24-581.12 0a19.2 19.2 0 1 1-25.6-28.586667 512 512 0 0 1 78.933334-54.186667l-37.546667-35.413333a19.2 19.2 0 0 1 0-27.306667 18.773333 18.773333 0 0 1 13.653333-5.546666 19.2 19.2 0 0 1 13.653334 5.546666l42.666666 44.8a520.96 520.96 0 0 1 103.253334-37.546666l-18.773334-62.72A19.626667 19.626667 0 0 1 426.666667 213.333333h5.546666a19.2 19.2 0 0 1 18.346667 13.653334l18.773333 60.16a16.213333 16.213333 0 0 1 0 4.266666 450.986667 450.986667 0 0 1 72.96-5.973333 389.973333 389.973333 0 0 1 49.493334 2.986667 19.626667 19.626667 0 0 1 0-11.093334l15.786666-69.12a20.053333 20.053333 0 0 1 18.773334-15.36h4.693333a19.2 19.2 0 0 1 14.506667 23.04l-16.213334 69.12a13.226667 13.226667 0 0 1-3.84 7.68 421.973333 421.973333 0 0 1 112.213334 39.68 26.026667 26.026667 0 0 1 2.986666-4.266666l55.04-55.04a18.773333 18.773333 0 0 1 13.653334-5.546667 19.2 19.2 0 0 1 13.653333 5.546667 20.053333 20.053333 0 0 1 0 27.306666l-51.2 51.2a582.826667 582.826667 0 0 1 76.373333 57.173334 20.053333 20.053333 0 0 1 0.426667 28.16z"  horiz-adv-x="1024" />

    
    <glyph glyph-name="ttubiao_personal" unicode="&#58931;" d="M740.4544 253.59360000000004a302.5408 302.5408 0 0 1-125.0816 88.8832 209.92 209.92 0 1 1-215.04 0 303.2064 303.2064 0 0 1-195.328-282.8288 25.088 25.088 0 0 1 50.1248 0 252.7744 252.7744 0 1 0 505.5488 0 25.088 25.088 0 0 1 50.1248 0 303.4112 303.4112 0 0 1-70.3488 193.9456zM347.9552 522.3424a159.7952 159.7952 0 1 0 159.7952-159.7952 159.9488 159.9488 0 0 0-159.7952 159.7952z"  horiz-adv-x="1024" />

    
    <glyph glyph-name="IMweb_shrink" unicode="&#58930;" d="M395.946667 724.906667h50.346666v-281.6h-281.6V493.226667h231.253334V724.906667zM571.733333 724.906667h50.346667v-231.68H853.333333v-49.92h-281.6v281.6zM565.76 310.613333h281.173333v-49.92h-231.253333v-231.253333h-49.92v281.173333zM164.693333 310.613333h281.6v-281.173333H395.946667v231.253333H164.693333v49.92z"  horiz-adv-x="1024" />

    
    <glyph glyph-name="IMweb_extend" unicode="&#58929;" d="M220.586667 417.706667H170.666667V696.746667h279.04v-49.493334H220.586667v-229.546666zM853.333333 417.706667h-49.92V647.253333h-229.12V696.746667H853.333333v-279.04zM846.933333 7.253333h-279.04v49.92h229.546667v229.12h49.493333v-279.04zM449.706667 7.253333H170.666667v279.04h49.92v-229.12h229.12v-49.92z"  horiz-adv-x="1024" />

    
    <glyph glyph-name="IMweb_Plusmeeeting" unicode="&#58928;" d="M810.666667 64.853333H262.4a85.333333 85.333333 0 0 0-85.333333 87.466667V640a85.333333 85.333333 0 0 0 85.333333 85.333333H810.666667a85.333333 85.333333 0 0 0 85.333333-85.333333v-487.68a87.466667 87.466667 0 0 0-85.333333-87.466667zM262.4 667.306667a29.013333 29.013333 0 0 1-29.013333-27.306667v-487.68a28.586667 28.586667 0 0 1 29.013333-29.013333H810.666667a29.013333 29.013333 0 0 1 29.013333 29.013333V640a29.44 29.44 0 0 1-29.013333 27.306667zM690.346667 424.106667h-125.866667V549.546667h-58.026667v-125.44H381.013333v-58.026667h125.44v-125.44h58.026667v125.44h125.866667v58.026667z"  horiz-adv-x="1024" />

    
    <glyph glyph-name="IMweb_addfriends" unicode="&#58925;" d="M668.586667 313.173333a26.88 26.88 0 0 1-9.813334 36.266667 298.666667 298.666667 0 0 1-69.546666 28.16 190.72 190.72 0 0 1 85.333333 158.293333 186.026667 186.026667 0 1 1-372.053333 0 189.44 189.44 0 0 1 85.333333-158.293333A290.56 290.56 0 0 1 170.666667 97.28a26.453333 26.453333 0 0 1 26.453333-26.453333 26.453333 26.453333 0 0 1 26.453333 26.453333 237.653333 237.653333 0 0 0 237.226667 237.226667h56.32a235.52 235.52 0 0 0 117.333333-31.146667 26.453333 26.453333 0 0 1 34.133334 9.813333zM353.706667 535.893333a133.12 133.12 0 1 0 133.12-136.533333 135.253333 135.253333 0 0 0-133.12 136.533333zM810.666667 185.6h-79.36v79.36h-53.333334v-79.36h-79.36v-53.333333h79.36v-79.36h53.333334V132.266667H810.666667v53.333333z"  horiz-adv-x="1024" />

    
    <glyph glyph-name="IMweb_meeting" unicode="&#58924;" d="M488.106667 366.933333l-155.733334 89.6a8.533333 8.533333 0 0 1-12.8-7.253333v-179.626667a8.533333 8.533333 0 0 1 12.8-7.253333l155.733334 89.6a8.96 8.96 0 0 1 0 14.933333zM919.466667 566.186667a38.826667 38.826667 0 0 1-37.973334 0l-144.64-75.093334V573.013333a77.653333 77.653333 0 0 1-77.226666 77.653334H162.56A77.653333 77.653333 0 0 1 85.333333 573.013333v-415.146666a77.226667 77.226667 0 0 1 77.226667-77.226667h497.066667a77.226667 77.226667 0 0 1 77.226666 77.226667v62.293333l145.92-72.533333a36.266667 36.266667 0 0 1 17.066667-4.266667 39.253333 39.253333 0 0 1 20.48 5.973333 37.973333 37.973333 0 0 1 18.346667 32.853334V532.48a38.4 38.4 0 0 1-19.2 33.706667z m-234.24-408.32a25.6 25.6 0 0 0-25.6-25.6H162.56a25.6 25.6 0 0 0-25.6 25.6V573.013333a26.026667 26.026667 0 0 0 25.6 24.32h497.066667a26.026667 26.026667 0 0 0 25.6-26.026666z m201.813333 45.226666l-150.186667 74.666667v154.88L887.04 512z"  horiz-adv-x="1024" />

    
    <glyph glyph-name="IMweb_group" unicode="&#58923;" d="M824.746667 742.4H387.413333a71.253333 71.253333 0 0 1-71.253333-71.253333v-51.2H208.64a69.546667 69.546667 0 0 1-69.546667-69.973334v-376.746666a69.546667 69.546667 0 0 1 69.546667-69.973334h147.626667l20.906666-81.92 3.84-15.36 30.72-5.973333 78.933334 103.253333h216.32a69.973333 69.973333 0 0 1 69.973333 69.973334v37.973333h47.786667A71.253333 71.253333 0 0 1 896 282.453333V671.146667a71.253333 71.253333 0 0 1-71.253333 71.253333zM725.333333 173.226667a20.053333 20.053333 0 0 0-20.053333-20.48H490.666667a46.08 46.08 0 0 1-37.12-18.346667l-42.666667-52.48-8.96 35.413333a46.506667 46.506667 0 0 1-45.653333 35.413334H208.64a20.053333 20.053333 0 0 0-20.053333 20.48V549.973333a20.053333 20.053333 0 0 0 20.053333 20.48h498.346667a20.053333 20.053333 0 0 0 20.053333-20.48z m119.466667 109.226666a21.76 21.76 0 0 0-21.76-21.76h-46.08V549.973333a69.973333 69.973333 0 0 1-69.973333 69.973334h-341.333334v51.2a21.76 21.76 0 0 0 21.76 21.76h437.333334a21.76 21.76 0 0 0 21.76-21.76zM561.066667 396.8h-78.506667V475.733333h-49.493333v-78.933333H354.56v-49.493333h78.506667v-78.506667h49.493333v78.506667h78.506667V396.8z"  horiz-adv-x="1024" />

    
    <glyph glyph-name="IMweb_more" unicode="&#58921;" d="M768 522.666667H213.333333a32 32 0 0 0 0 64h554.666667a32 32 0 0 0 0-64zM768 319.573333H213.333333A32 32 0 1 0 213.333333 384h554.666667a32 32 0 0 0 0-64zM768 116.48H213.333333a32 32 0 0 0 0 64h554.666667a32 32 0 0 0 0-64z"  horiz-adv-x="1024" />

    
    <glyph glyph-name="IMweb_camera_close" unicode="&#58918;" d="M776.96 148.053333l-73.813333 73.813334V534.186667a85.333333 85.333333 0 0 1-85.333334 85.333333H305.493333L209.066667 715.946667a21.76 21.76 0 0 1-30.293334 0 21.333333 21.333333 0 0 1 0-29.866667l568.32-568.32a21.333333 21.333333 0 0 1 14.933334-5.973333 21.333333 21.333333 0 0 1 14.933333 36.266666zM213.333333 619.093333a85.333333 85.333333 0 0 1-85.333333-85.333333v-326.826667a85.333333 85.333333 0 0 1 85.333333-85.333333h405.333334a85.333333 85.333333 0 0 1 70.826666 37.546667L229.973333 619.093333z m51.626667-82.773333a38.826667 38.826667 0 1 0-38.826667-38.826667 38.4 38.4 0 0 0 38.826667 38.826667zM872.533333 506.026667L740.693333 426.666667a25.6 25.6 0 0 1-12.373333-21.76v-72.533334a24.32 24.32 0 0 1 12.373333-21.333333l131.84-77.653333a17.92 17.92 0 0 1 23.466667 17.066666v238.933334a17.92 17.92 0 0 1-23.466667 16.64z"  horiz-adv-x="1024" />

    
    <glyph glyph-name="IMweb_speaker_close1" unicode="&#58917;" d="M609.706667 60.16l-200.96 122.453333a26.88 26.88 0 0 1-14.08 3.84h-85.333334a81.066667 81.066667 0 0 0-81.066666 81.066667v204.8A81.066667 81.066667 0 0 0 309.333333 554.666667h85.333334a26.88 26.88 0 0 1 14.08 3.84L613.12 682.666667a26.88 26.88 0 0 0 39.68-23.893334l-2.133333-576a26.88 26.88 0 0 0-40.96-22.613333zM753.493333 204.8a22.613333 22.613333 0 0 0-10.24 2.56 23.04 23.04 0 0 0-10.24 30.72 306.346667 306.346667 0 0 1 0 273.493333 22.613333 22.613333 0 1 0 42.666667 20.906667 349.013333 349.013333 0 0 0 0-314.88 22.613333 22.613333 0 0 0-22.186667-12.8z"  horiz-adv-x="1024" />

    
    <glyph glyph-name="IMweb_Micro_close" unicode="&#58916;" d="M508.586667 192.426667A155.733333 155.733333 0 0 1 632.746667 256L352 535.04v-186.026667a157.013333 157.013333 0 0 1 156.586667-156.586666zM508.586667 142.933333a205.653333 205.653333 0 0 0-206.08 205.653334 24.746667 24.746667 0 0 1-49.493334 0 256 256 0 0 1 230.826667-256v-75.52H376.746667a24.746667 24.746667 0 1 1 0-49.493334H640a24.746667 24.746667 0 1 1 0 49.493334h-106.666667v77.653333a256 256 0 0 1 170.666667 89.173333l-34.986667 34.986667a204.373333 204.373333 0 0 0-160.426666-75.946667zM846.506667 128l-108.373334 109.653333a251.306667 251.306667 0 0 1 26.026667 111.36 24.746667 24.746667 0 1 1-49.493333 0 207.786667 207.786667 0 0 0-14.08-73.386666l-39.68 39.253333a152.746667 152.746667 0 0 1 4.266666 34.133333V580.266667a156.586667 156.586667 0 0 1-308.906666 39.253333L252.16 725.333333a22.613333 22.613333 0 0 1-32-32l594.346667-596.48a23.04 23.04 0 0 1 16.213333-6.4 22.613333 22.613333 0 0 1 15.786667 6.4 23.04 23.04 0 0 1 0 31.146667z"  horiz-adv-x="1024" />

    
    <glyph glyph-name="IMweb_speaker_close" unicode="&#58913;" d="M609.706667 60.16l-200.96 122.453333a26.88 26.88 0 0 1-14.08 3.84h-85.333334a81.066667 81.066667 0 0 0-81.066666 81.066667v204.8A81.066667 81.066667 0 0 0 309.333333 554.666667h85.333334a26.88 26.88 0 0 1 14.08 3.84L613.12 682.666667a26.88 26.88 0 0 0 39.68-23.893334l-2.133333-576a26.88 26.88 0 0 0-40.96-22.613333zM753.493333 204.8a22.613333 22.613333 0 0 0-10.24 2.56 23.04 23.04 0 0 0-10.24 30.72 306.346667 306.346667 0 0 1 0 273.493333 22.613333 22.613333 0 1 0 42.666667 20.906667 349.013333 349.013333 0 0 0 0-314.88 22.613333 22.613333 0 0 0-22.186667-12.8z"  horiz-adv-x="1024" />

    
    <glyph glyph-name="IMweb_file" unicode="&#58911;" d="M889.173333 543.573333V625.493333A81.066667 81.066667 0 0 1 810.666667 706.133333h-243.626667l-17.493333 27.733334a81.92 81.92 0 0 1-64 31.573333H165.973333A81.066667 81.066667 0 0 1 85.333333 682.666667v-640a80.64 80.64 0 0 1 80.64-80.64h692.053334A80.64 80.64 0 0 1 938.666667 46.08V469.333333a81.066667 81.066667 0 0 1-49.493334 74.24zM810.666667 652.373333a27.306667 27.306667 0 0 0 27.306666-26.88v-75.52h-157.866666a26.453333 26.453333 0 0 0-22.613334 12.373334l-56.746666 90.026666z m76.373333-606.293333a26.88 26.88 0 0 0-26.88-26.88H165.973333a26.88 26.88 0 0 0-26.88 26.88V682.666667a26.88 26.88 0 0 0 26.88 26.88h319.573334a26.88 26.88 0 0 0 19.626666-8.106667l106.666667-170.666667a80.64 80.64 0 0 1 68.266667-37.546666h177.92a27.306667 27.306667 0 0 0 26.88-27.306667zM251.306667 384h189.866666a27.306667 27.306667 0 0 1 0 54.186667H251.306667a27.306667 27.306667 0 0 1 0-54.186667zM677.12 279.466667h-426.666667a26.88 26.88 0 1 1 0-53.76h426.666667a26.88 26.88 0 1 1 0 53.76z"  horiz-adv-x="1024" />

    
    <glyph glyph-name="IMweb_picture" unicode="&#58912;" d="M839.68 810.666667H184.32A98.986667 98.986667 0 0 1 85.333333 711.68v-655.36A98.986667 98.986667 0 0 1 184.32-42.666667h655.36A98.986667 98.986667 0 0 1 938.666667 56.32V711.68A98.986667 98.986667 0 0 1 839.68 810.666667zM184.32 752.64h655.36a42.666667 42.666667 0 0 0 42.666667-42.666667v-433.066666l-144.64 101.546666a71.253333 71.253333 0 0 1-85.333334-3.413333l-150.186666-128L304.64 426.666667a54.613333 54.613333 0 0 1-75.093333 0l-85.333334-81.92v366.933333a42.666667 42.666667 0 0 0 40.106667 40.96z m-42.666667-696.32v209.92L267.52 384l189.013333-174.933333-228.693333-193.706667h-42.666667a42.666667 42.666667 0 0 0-41.813333 40.96z m696.32-42.666667H317.44l372.053333 315.306667a12.373333 12.373333 0 0 0 13.226667 0l177.92-125.013333v-149.76a42.666667 42.666667 0 0 0-40.96-38.826667zM750.08 554.666667a48.213333 48.213333 0 1 1-48.213333 48.213333A48.213333 48.213333 0 0 1 750.08 554.666667z"  horiz-adv-x="1024" />

    
    <glyph glyph-name="IMweb_qcard" unicode="&#58915;" d="M521.386667 341.333333a197.973333 197.973333 0 0 1 85.333333 164.266667 193.28 193.28 0 1 1-386.56 0A197.973333 197.973333 0 0 1 309.76 341.333333 301.653333 301.653333 0 0 1 85.333333 52.053333 52.053333 52.053333 0 0 1 137.386667 0h554.666666a52.053333 52.053333 0 0 1 52.053334 52.053333A301.653333 301.653333 0 0 1 521.386667 341.333333zM277.333333 507.306667a138.24 138.24 0 1 0 138.24-141.653334A139.946667 139.946667 0 0 0 277.333333 507.306667z m-136.96-452.266667A246.186667 246.186667 0 0 0 386.56 298.666667h58.026667a246.186667 246.186667 0 0 0 246.186666-243.2zM725.333333 390.826667a198.826667 198.826667 0 0 1 76.373334 156.586666 193.28 193.28 0 0 1-237.653334 191.573334 28.16 28.16 0 0 1-20.48-33.28 27.733333 27.733333 0 0 1 33.28-20.48 130.56 130.56 0 0 0 31.573334 3.84 142.08 142.08 0 0 0 16.64-282.453334 11.946667 11.946667 0 0 1-5.12 0 27.306667 27.306667 0 0 1-17.066667-28.586666 27.733333 27.733333 0 0 1 27.306667-23.893334 246.613333 246.613333 0 0 0 246.186666-243.626666h-59.306666a27.306667 27.306667 0 1 1 0-54.613334h59.733333a52.053333 52.053333 0 0 1 52.48 52.053334A301.653333 301.653333 0 0 1 725.333333 390.826667z"  horiz-adv-x="1024" />

    
    <glyph glyph-name="IMweb_setup" unicode="&#58919;" d="M793.173333 384A93.866667 93.866667 0 0 0 853.333333 471.893333a364.8 364.8 0 0 1-37.973333 92.16 93.44 93.44 0 0 0-123.306667 123.306667A364.8 364.8 0 0 1 599.893333 725.333333 93.44 93.44 0 0 0 426.666667 725.333333a364.8 364.8 0 0 1-92.16-37.973333 93.013333 93.013333 0 0 0-124.16-123.306667A350.72 350.72 0 0 1 170.666667 471.893333 93.44 93.44 0 0 0 170.666667 298.666667a364.8 364.8 0 0 1 37.973333-92.16 93.44 93.44 0 0 0 123.306667-123.306667A364.8 364.8 0 0 1 426.666667 42.666667a93.44 93.44 0 0 0 174.506666 0 364.8 364.8 0 0 1 92.16 37.973333 93.013333 93.013333 0 0 0 122.88 123.306667A350.72 350.72 0 0 1 853.333333 298.666667a93.866667 93.866667 0 0 0-60.16 85.333333zM512 290.986667A93.866667 93.866667 0 1 0 606.293333 384 93.44 93.44 0 0 0 512 290.986667z"  horiz-adv-x="1024" />

    
    <glyph glyph-name="IMweb_transformation" unicode="&#58922;" d="M820.906667 613.12h-135.253334l-25.6 46.506667a91.733333 91.733333 0 0 1-80.213333 46.933333h-148.48a91.733333 91.733333 0 0 1-85.333333-54.613333l-17.493334-38.826667h-128A75.093333 75.093333 0 0 1 128 538.026667v-393.386667a75.093333 75.093333 0 0 1 75.093333-74.666667h617.813334A75.093333 75.093333 0 0 1 896 144.64V538.026667a75.093333 75.093333 0 0 1-75.093333 75.093333zM317.866667 367.36h31.146666a163.84 163.84 0 0 0 298.666667 76.8 18.773333 18.773333 0 0 0-30.72-21.333333 128 128 0 0 1-228.693333-55.466667h29.013333L367.36 298.666667z m357.12-34.133333a163.84 163.84 0 0 0-298.666667-76.8 18.773333 18.773333 0 0 0 7.68 26.026666 18.773333 18.773333 0 0 0 26.026667-4.266666 128 128 0 0 1 228.266666 55.04h-29.013333l49.493333 68.266666 48.64-68.266666z"  horiz-adv-x="1024" />

    
    <glyph glyph-name="IMweb_add" unicode="&#58926;" d="M512 813.226667a426.666667 426.666667 0 1 1 426.666667-426.666667 426.666667 426.666667 0 0 1-426.666667 426.666667z m0-800.426667a374.186667 374.186667 0 1 0 373.76 374.186667A374.613333 374.613333 0 0 0 512 12.8zM705.28 413.013333h-166.4V571.306667a26.026667 26.026667 0 0 1-25.6 26.453333 26.026667 26.026667 0 0 1-26.026667-26.026667v-158.72H319.573333a26.026667 26.026667 0 0 1 0-52.053333h166.4v-158.293333a26.026667 26.026667 0 0 1 26.026667-26.453334 26.453333 26.453333 0 0 1 26.453333 26.026667v158.72h167.253334a26.026667 26.026667 0 0 1 0 52.053333z"  horiz-adv-x="1024" />

    
    <glyph glyph-name="IMweb_speaker" unicode="&#58934;" d="M520.533333 55.04l-201.386666 122.453333a26.88 26.88 0 0 1-14.08 3.84H192.426667a54.186667 54.186667 0 0 0-54.186667 54.186667V494.933333a54.186667 54.186667 0 0 0 54.186667 54.186667h112.64A27.306667 27.306667 0 0 1 319.146667 554.666667l204.8 125.866666a27.306667 27.306667 0 0 0 40.106666-23.893333l-2.56-577.706667a26.88 26.88 0 0 0-40.96-23.893333zM648.533333 200.106667a22.186667 22.186667 0 0 0-10.24 0 23.466667 23.466667 0 0 0-10.24 31.146666 303.786667 303.786667 0 0 1 0 273.92 23.04 23.04 0 0 0 9.813334 31.146667 23.466667 23.466667 0 0 0 31.146666-10.24 354.133333 354.133333 0 0 0 0-315.733333 23.04 23.04 0 0 0-20.48-10.24zM745.386667 58.88a23.466667 23.466667 0 0 0-12.8 3.84 23.04 23.04 0 0 0-5.973334 32 459.093333 459.093333 0 0 1-10.24 534.186667 22.613333 22.613333 0 0 0 4.693334 32 23.04 23.04 0 0 0 32.426666-4.693334A499.626667 499.626667 0 0 0 853.333333 354.986667a503.466667 503.466667 0 0 0-88.746666-286.293334 23.893333 23.893333 0 0 0-19.2-9.813333z"  horiz-adv-x="1024" />

    
    <glyph glyph-name="IMweb_Video_Facial" unicode="&#58937;" d="M916.053333 525.653333l-143.36-123.733333a37.12 37.12 0 0 1-13.226666-28.586667v-55.466666a36.266667 36.266667 0 0 1 13.226666-28.16l143.36-123.733334a31.146667 31.146667 0 0 1 51.626667 23.466667V501.76a31.146667 31.146667 0 0 1-51.626667 23.893333zM660.053333 606.293333H151.893333a74.24 74.24 0 0 1-74.24-74.24v-372.48A74.24 74.24 0 0 1 151.893333 85.333333h508.16a73.813333 73.813333 0 0 1 73.813334 74.24V532.053333a73.813333 73.813333 0 0 1-73.813334 74.24zM230.4 445.866667a46.506667 46.506667 0 1 0 46.08 46.506666 46.506667 46.506667 0 0 0-46.08-46.506666z"  horiz-adv-x="1024" />

    
    <glyph glyph-name="IMweb_Microphone" unicode="&#58938;" d="M750.506667 400.213333a23.466667 23.466667 0 0 1-28.586667-16.64 237.653333 237.653333 0 0 0-462.506667 11.52A23.466667 23.466667 0 0 1 213.333333 384a286.72 286.72 0 0 1 256-223.146667v-104.96H406.613333a23.466667 23.466667 0 0 1 0-46.506666h168.106667a23.466667 23.466667 0 0 1 0 46.506666h-60.586667v104.96A283.733333 283.733333 0 0 1 768 371.626667a23.04 23.04 0 0 1-17.493333 28.586666zM490.666667 786.346667a170.666667 170.666667 0 0 1-170.666667-170.666667v-192.853333a170.666667 170.666667 0 1 1 338.773333 0V616.96a170.666667 170.666667 0 0 1-168.106666 169.386667z m-26.88-298.666667H395.093333a23.466667 23.466667 0 1 0 0 46.506667h68.693334a23.466667 23.466667 0 1 0 0-46.506667zM469.333333 570.453333H395.093333a23.466667 23.466667 0 0 0 0 46.933334H469.333333a23.466667 23.466667 0 0 0 0-46.933334z"  horiz-adv-x="1024" />

    
    <glyph glyph-name="IMweb_news" unicode="&#58940;" d="M426.666667 14.08h-4.266667a29.013333 29.013333 0 0 0-22.613333 21.76c-6.4 26.88-23.04 100.693333-23.04 100.693333H242.773333A114.773333 114.773333 0 0 0 128 252.16V568.32A115.2 115.2 0 0 0 242.773333 682.666667h495.786667A115.2 115.2 0 0 0 853.333333 568.32v-316.16a114.773333 114.773333 0 0 0-114.773333-114.773333h-209.92l-76.373333-110.506667a29.013333 29.013333 0 0 0-25.6-12.8zM242.773333 633.6a65.28 65.28 0 0 1-65.28-65.28v-316.16a64.853333 64.853333 0 0 1 65.28-65.28h133.12a51.2 51.2 0 0 0 49.066667-38.4s6.4-28.16 12.8-55.466667l49.92 72.96a50.773333 50.773333 0 0 0 42.666667 20.906667h209.92a64.853333 64.853333 0 0 1 65.28 65.28V568.32a65.28 65.28 0 0 1-65.28 65.28zM317.44 423.253333m-46.933333 0a46.933333 46.933333 0 1 1 93.866666 0 46.933333 46.933333 0 1 1-93.866666 0ZM496.213333 423.253333m-46.933333 0a46.933333 46.933333 0 1 1 93.866667 0 46.933333 46.933333 0 1 1-93.866667 0ZM675.413333 423.253333m-46.933333 0a46.933333 46.933333 0 1 1 93.866667 0 46.933333 46.933333 0 1 1-93.866667 0Z"  horiz-adv-x="1024" />

    
    <glyph glyph-name="IMweb_Hangup" unicode="&#58941;" d="M252.16 289.28a440.746667 440.746667 0 0 1 70.826667 17.066667 195.413333 195.413333 0 0 1 47.36 20.053333 49.92 49.92 0 0 1 9.813333 42.666667l-9.813333 30.72a98.986667 98.986667 0 0 0-6.826667 26.88 182.613333 182.613333 0 0 0 57.173333 16.64 712.96 712.96 0 0 0 87.893334 6.826666 346.88 346.88 0 0 0 98.133333-9.813333 373.76 373.76 0 0 0 53.76-13.653333 98.986667 98.986667 0 0 0-6.826667-26.88 285.866667 285.866667 0 0 1-13.226666-34.133334 48.64 48.64 0 0 1 9.813333-42.666666 85.333333 85.333333 0 0 1 47.36-20.48c20.48-6.826667 42.666667-10.24 70.826667-16.64a347.306667 347.306667 0 0 1 67.84-6.826667 75.093333 75.093333 0 0 1 53.76 13.226667c23.893333 23.893333 17.066667 85.333333 13.653333 101.546666a213.333333 213.333333 0 0 1-47.36 114.773334 304.213333 304.213333 0 0 1-134.826667 60.586666 938.666667 938.666667 0 0 1-199.253333 23.893334h-20.48a744.106667 744.106667 0 0 1-199.253333-23.893334 304.213333 304.213333 0 0 1-134.826667-60.16 213.333333 213.333333 0 0 1-47.36-114.773333c-3.413333-17.066667-10.24-77.653333 13.653333-101.546667a75.093333 75.093333 0 0 1 53.76-13.226666 408.746667 408.746667 0 0 1 64.426667 9.813333z"  horiz-adv-x="1024" />

    
    <glyph glyph-name="IMweb_expression" unicode="&#58943;" d="M512-39.68a426.666667 426.666667 0 1 0 426.666667 426.666667 426.666667 426.666667 0 0 0-426.666667-426.666667z m0 800.853333a374.186667 374.186667 0 1 1 374.186667-374.186666A374.186667 374.186667 0 0 1 512 761.173333zM512 170.666667a218.88 218.88 0 0 0-203.093333 125.44 26.453333 26.453333 0 0 0 13.653333 34.56 26.026667 26.026667 0 0 0 34.56-13.226667A165.546667 165.546667 0 0 1 512 222.293333a165.973333 165.973333 0 0 1 157.44 100.693334 26.026667 26.026667 0 0 0 33.706667 15.36 26.453333 26.453333 0 0 0 15.36-34.133334A219.306667 219.306667 0 0 0 512 170.666667zM332.373333 505.6m-47.786666 0a47.786667 47.786667 0 1 1 95.573333 0 47.786667 47.786667 0 1 1-95.573333 0ZM656.64 505.6m-47.786667 0a47.786667 47.786667 0 1 1 95.573334 0 47.786667 47.786667 0 1 1-95.573334 0Z"  horiz-adv-x="1024" />

    
    <glyph glyph-name="IMweb_grcard" unicode="&#58944;" d="M911.786667 5.546667H128a112.213333 112.213333 0 0 0-112.64 112.213333V613.12A112.213333 112.213333 0 0 0 128 725.333333h783.786667A112.213333 112.213333 0 0 0 1024 613.12v-495.36a112.213333 112.213333 0 0 0-112.213333-112.213333zM128 680.533333a66.986667 66.986667 0 0 1-67.413333-67.413333v-495.36A66.986667 66.986667 0 0 1 128 50.346667h783.786667A67.413333 67.413333 0 0 1 981.333333 117.76V613.12a67.413333 67.413333 0 0 1-67.413333 67.413333zM747.093333 453.12h-128a22.186667 22.186667 0 0 0-21.76 22.186667 22.613333 22.613333 0 0 0 22.613334 22.613333h128a22.613333 22.613333 0 0 0 22.613333-22.613333 22.186667 22.186667 0 0 0-23.466667-22.186667zM796.16 341.333333h-178.346667a22.186667 22.186667 0 0 0-22.613333 22.186667 22.613333 22.613333 0 0 0 22.613333 22.613333h178.346667a22.186667 22.186667 0 0 0 22.186667-22.613333 22.186667 22.186667 0 0 0-22.186667-22.186667zM879.786667 232.533333h-261.973334A22.613333 22.613333 0 0 0 597.333333 256a22.186667 22.186667 0 0 0 22.613334 22.186667h261.973333a22.186667 22.186667 0 0 0 22.186667-22.186667 22.186667 22.186667 0 0 0-24.32-23.466667zM380.586667 346.453333h-3.413334a112.213333 112.213333 0 1 1-155.733333 102.826667 112.64 112.64 0 0 1 65.28-102.826667h-3.413333a153.6 153.6 0 0 1-153.173334-153.6v-26.88a18.773333 18.773333 0 0 1 18.773334-18.773333h366.506666a18.773333 18.773333 0 0 1 18.346667 18.773333v26.88a153.6 153.6 0 0 1-153.173333 153.6z"  horiz-adv-x="1024" />

    
    <glyph glyph-name="IMweb_Languagecall" unicode="&#58945;" d="M714.24 512a25.6 25.6 0 0 0-24.32 27.306667 168.106667 168.106667 0 0 1-40.533333 120.32 159.146667 159.146667 0 0 1-110.933334 55.04 26.026667 26.026667 0 0 0-26.453333 29.013333 26.453333 26.453333 0 0 0 27.733333 24.32 209.493333 209.493333 0 0 0 146.773334-72.533333 220.16 220.16 0 0 0 53.333333-157.44 25.6 25.6 0 0 0-25.6-26.026667zM614.4 519.253333a25.6 25.6 0 0 0-24.32 27.306667 66.133333 66.133333 0 0 1-57.6 73.813333 26.026667 26.026667 0 0 0-24.32 27.306667 25.6 25.6 0 0 0 27.306667 24.32 118.186667 118.186667 0 0 0 106.24-128 26.026667 26.026667 0 0 0-27.306667-24.746667zM632.746667 0a209.066667 209.066667 0 0 0-107.946667 37.12 935.68 935.68 0 0 0-298.666667 332.373333 192 192 0 0 0-21.333333 132.693334 426.666667 426.666667 0 0 0 71.253333 150.186666 63.146667 63.146667 0 0 0 42.666667 25.173334 77.653333 77.653333 0 0 0 57.173333-17.493334 597.333333 597.333333 0 0 0 128-161.706666 60.586667 60.586667 0 0 0-12.8-80.64l-38.826666-26.453334a298.666667 298.666667 0 0 1 107.946666-120.746666l30.293334 35.84a59.306667 59.306667 0 0 0 85.333333 2.56 830.293333 830.293333 0 0 0 148.053333-149.333334 68.693333 68.693333 0 0 0-13.226666-92.586666 392.533333 392.533333 0 0 0-151.04-64.426667 156.16 156.16 0 0 0-26.88-2.56zM325.546667 626.346667s-3.413333 0-6.826667-5.12A378.453333 378.453333 0 0 1 256 488.96a143.36 143.36 0 0 1 18.773333-97.706667 890.453333 890.453333 0 0 1 277.333334-309.76 136.96 136.96 0 0 1 98.986666-28.16 351.146667 351.146667 0 0 1 125.013334 50.346667c10.24 10.24 11.093333 16.64 3.84 28.16a797.013333 797.013333 0 0 1-136.96 136.533333c-5.973333 4.693333-11.52 5.546667-12.373334 4.266667l-37.973333-44.8a37.546667 37.546667 0 0 0-52.48-4.693333 341.333333 341.333333 0 0 0-137.386667 154.026666 38.4 38.4 0 0 0 10.24 49.493334l48.64 33.706666a26.026667 26.026667 0 0 1-3.84 14.506667A571.306667 571.306667 0 0 1 343.466667 618.666667a36.266667 36.266667 0 0 1-17.92 7.68z"  horiz-adv-x="1024" />

    
    <glyph glyph-name="IMweb_video" unicode="&#58946;" d="M832 765.44H205.653333a109.226667 109.226667 0 0 1-109.226666-109.226667v-590.506666A106.666667 106.666667 0 0 1 203.093333-42.666667H832a106.666667 106.666667 0 0 1 106.666667 106.666667V658.773333a106.666667 106.666667 0 0 1-106.666667 106.666667z m54.186667-106.666667v-64h-103.68L731.733333 712.533333h100.266667a53.76 53.76 0 0 0 54.186667-53.76zM341.333333 594.773333L288.853333 712.533333h90.453334l50.773333-117.76z m147.626667 0L436.48 712.533333h90.453333l50.773334-117.76z m147.626667 0L584.106667 712.533333h90.453333L725.333333 594.773333zM205.653333 712.533333h25.6l51.2-117.76H148.906667V656.213333A56.746667 56.746667 0 0 0 205.653333 712.533333zM832 11.946667H203.093333a53.76 53.76 0 0 0-54.186666 53.76V541.866667h737.28v-476.16a53.76 53.76 0 0 0-54.186667-53.76zM479.573333 396.8a23.04 23.04 0 0 1-34.986666-20.053333v-183.893334a23.04 23.04 0 0 1 34.986666-20.053333L640 264.533333a23.466667 23.466667 0 0 1 0 42.666667z"  horiz-adv-x="1024" />

    
    <glyph glyph-name="IMweb_" unicode="&#58947;" d="M873.386667 166.826667A421.12 421.12 0 1 1 509.44-42.666667h11.52a26.453333 26.453333 0 0 1 0 52.906667h-10.24a368.64 368.64 0 1 0 316.16 179.2c-16.64-25.173333-63.573333-76.373333-117.76-61.013333a70.826667 70.826667 0 0 0-47.36 39.253333 132.266667 132.266667 0 0 0 3.413333 103.253333L725.333333 379.306667a26.026667 26.026667 0 0 1-32 37.12A186.026667 186.026667 0 1 1 597.333333 213.333333a160 160 0 0 1 14.08-70.4 122.88 122.88 0 0 1 80.64-67.84 120.32 120.32 0 0 1 34.56-4.693333 181.76 181.76 0 0 1 136.96 81.493333v2.56l3.84 6.4v2.56l5.973334 3.413334z m-497.066667 213.333333a133.546667 133.546667 0 1 0 133.12-133.12 133.546667 133.546667 0 0 0-133.12 131.413333z"  horiz-adv-x="1024" />

    
    <glyph glyph-name="IMweb_search" unicode="&#58948;" d="M460.8 92.16a360.533333 360.533333 0 1 0 360.533333 360.533333 360.96 360.96 0 0 0-360.533333-360.533333z m0 653.226667a293.12 293.12 0 1 1 293.12-292.693334 293.12 293.12 0 0 1-293.12 292.693334zM904.96-38.826667a33.28 33.28 0 0 0-23.893333 9.813334l-146.773334 145.493333a33.706667 33.706667 0 0 0 0 47.786667 33.28 33.28 0 0 0 47.36 0l147.2-145.493334a33.706667 33.706667 0 0 0 0-47.786666 32.426667 32.426667 0 0 0-23.893333-9.813334z"  horiz-adv-x="1024" />

    


  </font>
</defs>
</svg>
