<svg xmlns="http://www.w3.org/2000/svg" width="24" height="24" viewBox="0 0 24 24">
  <g id="Report__click" data-name="Report_ click" transform="translate(-1521 -122)">
    <rect id="矩形_1429" data-name="矩形 1429" width="24" height="24" transform="translate(1521 122)" fill="#ffa1a1" opacity="0"/>
    <g id="组_4546" data-name="组 4546" transform="translate(765.391 -221.239)">
      <path id="路径_4316" data-name="路径 4316" d="M771.528,360.785h0a.676.676,0,0,1-.6-.706l-.244-5.172a.982.982,0,0,1,.843-1.117h0a.982.982,0,0,1,.843,1.117l-.244,5.172A.677.677,0,0,1,771.528,360.785Z" transform="translate(-4.086 -2.786)" fill="#428dfc"/>
      <circle id="椭圆_720" data-name="椭圆 720" cx="0.845" cy="0.845" r="0.845" transform="translate(766.598 358.771)" fill="#428dfc"/>
      <path id="路径_4317" data-name="路径 4317" d="M767.449,365.226c-2.038,0-7.1-4.6-7.712-9.154a45.757,45.757,0,0,1-.034-6.295,1.527,1.527,0,0,1,.865-1.3c1.4-.671,4.868-2.235,6.881-2.235,1.491,0,4.907,1.4,6.81,2.236a1.52,1.52,0,0,1,.913,1.32,41.564,41.564,0,0,1-.038,6.283h0C774.476,360.615,769.729,365.226,767.449,365.226Zm0-17.724c-1.8,0-5.3,1.615-6.335,2.11a.265.265,0,0,0-.15.227,44.736,44.736,0,0,0,.023,6.066c.558,4.156,5.257,8.06,6.461,8.06,1.252,0,5.805-3.721,6.436-8.067h0a40.6,40.6,0,0,0,.026-6.035.262.262,0,0,0-.159-.23A24.022,24.022,0,0,0,767.449,347.5Z" transform="translate(0)" fill="#428dfc"/>
    </g>
  </g>
</svg>
